<svg xmlns="http://www.w3.org/2000/svg" viewBox="0 0 640 420" fill="none" role="img" aria-labelledby="seaArtTitle seaArtDesc">
  <title id="seaArtTitle">Sea Battle board artwork</title>
  <desc id="seaArtDesc">A dark naval grid with brass targeting marks, suggesting a local multiplayer sea battle.</desc>
  <rect width="640" height="420" rx="24" fill="#101614"/>
  <rect x="1" y="1" width="638" height="418" rx="23" stroke="#c4a574" stroke-opacity=".18"/>
  <circle cx="540" cy="40" r="160" fill="#c4a574" fill-opacity=".05"/>

  <g stroke="#8fb7a8" stroke-opacity=".16" stroke-width="1">
    <path d="M48 70h544M48 106h544M48 142h544M48 178h544M48 214h544M48 250h544M48 286h544M48 322h544M48 358h544"/>
    <path d="M80 46v340M116 46v340M152 46v340M188 46v340M224 46v340M260 46v340M296 46v340M332 46v340M368 46v340M404 46v340M440 46v340M476 46v340M512 46v340M548 46v340"/>
  </g>

  <rect x="188" y="142" width="140" height="32" rx="4" fill="#d7c4a0" fill-opacity=".92"/>
  <rect x="296" y="178" width="32" height="104" rx="4" fill="#d7c4a0" fill-opacity=".8"/>
  <circle cx="404" cy="196" r="7" fill="#e15d4f"/>
  <circle cx="404" cy="196" r="16" stroke="#e15d4f" stroke-opacity=".5"/>
  <circle cx="260" cy="250" r="6" fill="#c4a574"/>
  <circle cx="476" cy="142" r="5" fill="#8fb7a8"/>

  <path d="M116 286h36M116 286v36" stroke="#c4a574" stroke-width="2" stroke-linecap="round"/>
  <path d="M548 106h-36M548 106v36" stroke="#c4a574" stroke-width="2" stroke-linecap="round"/>

  <text x="48" y="40" fill="#c4a574" font-family="-apple-system, BlinkMacSystemFont, system-ui, sans-serif" font-size="11" letter-spacing="2.4">LOCAL MULTIPLAYER</text>
</svg>
